<svg width="110" height="110" viewBox="0 0 110 110" fill="none" xmlns="http://www.w3.org/2000/svg">
<path d="M109.204 55C109.204 85.1008 84.8681 109.5 54.8518 109.5C24.8354 109.5 0.5 85.1008 0.5 55C0.5 24.8992 24.8354 0.5 54.8518 0.5C84.8681 0.5 109.204 24.8992 109.204 55Z" stroke="#E0E0E0"/>
<path d="M99.2301 55C99.2301 79.5779 79.3598 99.5 54.8514 99.5C30.343 99.5 10.4727 79.5779 10.4727 55C10.4727 30.4221 30.343 10.5 54.8514 10.5C79.3598 10.5 99.2301 30.4221 99.2301 55Z" stroke="#4985FF"/>
<g clip-path="url(#clip0_96354_11)">
<path d="M74.1342 35H44.2151C43.8479 35 43.5502 35.2985 43.5502 35.6667V45.6666H44.88V36.3333H73.4693V72.9999C73.4757 73.3505 73.2059 73.6442 72.857 73.6666C72.7998 73.6666 72.7426 73.6619 72.6854 73.6606C72.5677 73.6573 72.4501 73.6546 72.3344 73.6426C72.3244 73.6426 72.3151 73.6426 72.3051 73.6386C70.1337 73.4006 68.4184 71.6823 68.1789 69.5053C68.1789 69.4959 68.1756 69.4859 68.1743 69.4766C68.1582 69.3182 68.1502 69.1591 68.1504 68.9999V67.6666C68.1504 67.2984 67.8527 66.9999 67.4855 66.9999H44.88V55H43.5502V66.9999H38.2313C37.8641 66.9999 37.5664 67.2984 37.5664 67.6666V68.9999C37.5701 72.3121 40.247 74.9962 43.5502 74.9999H72.8709C73.9498 74.9716 74.8073 74.0821 74.799 72.9999V35.6667C74.799 35.2985 74.5013 35 74.1342 35ZM43.5502 73.6666C40.9811 73.6637 38.8991 71.576 38.8961 68.9999V68.3333H66.8206V68.9999C66.8215 69.2198 66.8342 69.4394 66.8585 69.6579C66.8645 69.7159 66.8758 69.7719 66.8838 69.8293C66.9057 69.9906 66.9323 70.1513 66.9676 70.3093C66.9795 70.3646 66.9948 70.4193 67.0088 70.4746C67.0493 70.6353 67.0952 70.7933 67.1484 70.9493C67.1637 70.9939 67.1796 71.0379 67.1963 71.0826C67.2568 71.2479 67.3253 71.4093 67.4004 71.5686C67.4163 71.6013 67.431 71.6353 67.4469 71.6653C67.5303 71.8342 67.6218 71.9983 67.7215 72.1579C67.7348 72.1793 67.7468 72.2013 67.7601 72.2246C67.8684 72.3948 67.9855 72.5595 68.1105 72.7179L68.1317 72.7466C68.2768 72.9293 68.4323 73.1036 68.5971 73.2686C68.7403 73.4108 68.8888 73.5442 69.0426 73.6686L43.5502 73.6666Z" fill="#4985FF"/>
<path d="M56.8469 53.6667C57.0233 53.6667 57.1923 53.5963 57.317 53.4713L59.9764 50.8047C60.236 50.5443 60.236 50.1223 59.9764 49.862L57.317 47.1953C57.1923 47.0703 57.0233 47 56.8469 47H38.2306C36.3946 47 34.9062 48.4924 34.9062 50.3333C34.9062 52.1742 36.3946 53.6667 38.2306 53.6667H56.8469ZM56.6754 48.4373L58.5663 50.3333L56.6754 52.2293L56.2026 50.3333L56.6754 48.4373ZM40.2252 48.3333H55.331L54.9986 49.6667H41.5549V51H54.9986L55.331 52.3333H40.2252V48.3333ZM36.236 50.3333C36.236 49.2287 37.129 48.3333 38.2306 48.3333H38.8955V52.3333H38.2306C37.129 52.3333 36.236 51.4379 36.236 50.3333Z" fill="#4985FF"/>
<path d="M50.1979 63.6666H70.144C70.5112 63.6666 70.8089 63.3681 70.8089 62.9999V43C70.8088 42.6318 70.5111 42.3334 70.1438 42.3335C69.9675 42.3335 69.7986 42.4037 69.6739 42.5287L49.7279 62.5286C49.4682 62.789 49.4683 63.2111 49.728 63.4714C49.8527 63.5964 50.0217 63.6666 50.1979 63.6666ZM69.4791 44.6093V46.3333H68.1494V47.6666H69.4791V49H68.1494V50.3333H69.4791V51.6666H68.1494V53H69.4791V54.3333H68.1494V55.6666H69.4791V57H68.1494V58.3333H69.4791V59.6666H68.1494V60.9999H69.4791V62.3333H68.1494V60.9999H66.8196V62.3333H65.4899V60.9999H64.1602V62.3333H62.8304V60.9999H61.5007V62.3333H60.171V60.9999H58.8412V62.3333H57.5115V60.9999H56.1818V62.3333H54.852V60.9999H53.5223V62.3333H51.8029L69.4791 44.6093Z" fill="#4985FF"/>
<path d="M59.8288 59.6667H66.155C66.5222 59.6667 66.8199 59.3682 66.8199 59V52.6567C66.8198 52.2886 66.5221 51.9902 66.1549 51.9902C65.9786 51.9902 65.8096 52.0605 65.685 52.1854L59.3587 58.5287C59.0991 58.7891 59.0992 59.2112 59.3589 59.4715C59.4836 59.5965 59.6525 59.6667 59.8288 59.6667ZM65.4902 54.2667V58.3334H61.4345L65.4902 54.2667Z" fill="#4985FF"/>
<path d="M65.4907 39H52.1934V40.3333H65.4907V39Z" fill="#4985FF"/>
<path d="M67.4838 41.6665H50.1973V42.9998H67.4838V41.6665Z" fill="#4985FF"/>
<path d="M50.1982 55.6665H46.209V56.9998H50.1982V55.6665Z" fill="#4985FF"/>
<path d="M48.8685 58.3335H46.209V59.6668H48.8685V58.3335Z" fill="#4985FF"/>
</g>
<defs>
<clipPath id="clip0_96354_11">
<rect width="39.8922" height="40" fill="white" transform="translate(34.9062 35)"/>
</clipPath>
</defs>
</svg>
